<?xml version="1.0" encoding="UTF-8"?>
<svg xmlns="http://www.w3.org/2000/svg" version="1.1" width="200" height="200" viewBox="0 0 200 200"><rect x="0" y="0" width="200" height="200" fill="#ffffff"/><g transform="scale(6.897)"><g transform="translate(0,0)"><path fill-rule="evenodd" d="M9 0L9 1L10 1L10 2L8 2L8 3L9 3L9 4L10 4L10 5L9 5L9 6L8 6L8 8L4 8L4 9L5 9L5 10L6 10L6 11L5 11L5 13L4 13L4 15L3 15L3 13L1 13L1 12L2 12L2 11L3 11L3 12L4 12L4 10L3 10L3 8L0 8L0 10L2 10L2 11L1 11L1 12L0 12L0 15L1 15L1 16L2 16L2 15L3 15L3 16L5 16L5 15L7 15L7 16L6 16L6 17L7 17L7 16L8 16L8 17L9 17L9 16L10 16L10 15L9 15L9 14L10 14L10 13L7 13L7 12L9 12L9 11L10 11L10 10L12 10L12 8L14 8L14 9L18 9L18 7L19 7L19 8L20 8L20 7L21 7L21 6L20 6L20 5L21 5L21 4L19 4L19 3L20 3L20 2L21 2L21 1L20 1L20 0L18 0L18 1L17 1L17 0L15 0L15 2L16 2L16 3L15 3L15 6L14 6L14 5L13 5L13 6L12 6L12 8L11 8L11 6L10 6L10 5L11 5L11 4L12 4L12 3L13 3L13 2L14 2L14 0L12 0L12 1L10 1L10 0ZM18 1L18 2L17 2L17 5L18 5L18 6L17 6L17 7L18 7L18 6L19 6L19 7L20 7L20 6L19 6L19 4L18 4L18 3L19 3L19 1ZM11 2L11 3L12 3L12 2ZM9 6L9 7L10 7L10 6ZM13 6L13 7L14 7L14 8L16 8L16 6L15 6L15 7L14 7L14 6ZM9 8L9 10L10 10L10 8ZM21 8L21 10L20 10L20 11L19 11L19 10L18 10L18 11L17 11L17 13L16 13L16 11L15 11L15 13L16 13L16 18L17 18L17 17L18 17L18 16L20 16L20 15L22 15L22 16L21 16L21 17L22 17L22 20L20 20L20 19L21 19L21 18L20 18L20 19L19 19L19 18L18 18L18 19L17 19L17 20L16 20L16 19L15 19L15 21L16 21L16 23L15 23L15 22L14 22L14 21L13 21L13 20L12 20L12 19L11 19L11 20L12 20L12 21L11 21L11 23L10 23L10 24L9 24L9 21L8 21L8 20L9 20L9 19L8 19L8 20L6 20L6 19L7 19L7 18L5 18L5 20L4 20L4 21L8 21L8 25L9 25L9 26L8 26L8 29L9 29L9 28L10 28L10 29L11 29L11 28L12 28L12 29L13 29L13 28L12 28L12 27L11 27L11 26L12 26L12 24L14 24L14 26L13 26L13 27L14 27L14 26L15 26L15 24L17 24L17 25L16 25L16 28L15 28L15 29L18 29L18 28L19 28L19 27L17 27L17 26L18 26L18 23L17 23L17 22L18 22L18 20L19 20L19 21L20 21L20 22L19 22L19 24L20 24L20 25L19 25L19 26L21 26L21 27L20 27L20 29L21 29L21 27L22 27L22 26L21 26L21 25L23 25L23 27L24 27L24 28L22 28L22 29L24 29L24 28L25 28L25 23L26 23L26 22L27 22L27 25L26 25L26 27L27 27L27 29L29 29L29 28L28 28L28 27L29 27L29 21L26 21L26 22L25 22L25 20L26 20L26 18L27 18L27 20L28 20L28 19L29 19L29 16L28 16L28 15L29 15L29 12L28 12L28 11L29 11L29 9L28 9L28 10L26 10L26 9L27 9L27 8L26 8L26 9L25 9L25 10L24 10L24 12L25 12L25 14L23 14L23 12L22 12L22 11L21 11L21 10L23 10L23 8ZM6 9L6 10L7 10L7 11L6 11L6 12L7 12L7 11L8 11L8 10L7 10L7 9ZM13 10L13 11L14 11L14 10ZM25 10L25 11L26 11L26 13L27 13L27 14L25 14L25 15L24 15L24 16L23 16L23 18L24 18L24 20L25 20L25 18L26 18L26 17L27 17L27 18L28 18L28 17L27 17L27 14L28 14L28 13L27 13L27 11L26 11L26 10ZM11 11L11 12L12 12L12 13L11 13L11 15L12 15L12 16L11 16L11 18L12 18L12 16L14 16L14 18L13 18L13 19L14 19L14 18L15 18L15 14L14 14L14 13L13 13L13 12L12 12L12 11ZM20 11L20 12L19 12L19 13L17 13L17 14L18 14L18 15L20 15L20 14L21 14L21 11ZM5 13L5 14L7 14L7 13ZM13 14L13 15L14 15L14 14ZM22 14L22 15L23 15L23 14ZM8 15L8 16L9 16L9 15ZM25 15L25 16L26 16L26 15ZM3 17L3 18L2 18L2 19L1 19L1 18L0 18L0 19L1 19L1 20L0 20L0 21L1 21L1 20L2 20L2 21L3 21L3 20L2 20L2 19L4 19L4 17ZM21 21L21 24L24 24L24 21ZM13 22L13 23L14 23L14 22ZM22 22L22 23L23 23L23 22ZM11 23L11 24L12 24L12 23ZM9 26L9 27L10 27L10 28L11 28L11 27L10 27L10 26ZM27 26L27 27L28 27L28 26ZM0 0L0 7L7 7L7 0ZM1 1L1 6L6 6L6 1ZM2 2L2 5L5 5L5 2ZM22 0L22 7L29 7L29 0ZM23 1L23 6L28 6L28 1ZM24 2L24 5L27 5L27 2ZM0 22L0 29L7 29L7 22ZM1 23L1 28L6 28L6 23ZM2 24L2 27L5 27L5 24Z" fill="#000000"/></g></g></svg>
