<?xml version="1.0" encoding="UTF-8"?>
<svg xmlns="http://www.w3.org/2000/svg" version="1.1" width="200" height="200" viewBox="0 0 200 200"><rect x="0" y="0" width="200" height="200" fill="#ffffff"/><g transform="scale(6.897)"><g transform="translate(0,0)"><path fill-rule="evenodd" d="M8 0L8 1L9 1L9 2L8 2L8 5L9 5L9 4L11 4L11 5L10 5L10 10L9 10L9 11L8 11L8 10L6 10L6 9L7 9L7 8L6 8L6 9L4 9L4 8L0 8L0 9L4 9L4 10L0 10L0 16L3 16L3 18L4 18L4 20L3 20L3 19L2 19L2 20L1 20L1 21L2 21L2 20L3 20L3 21L4 21L4 20L5 20L5 21L7 21L7 20L5 20L5 18L6 18L6 19L7 19L7 18L8 18L8 22L9 22L9 25L8 25L8 29L12 29L12 28L14 28L14 27L15 27L15 26L16 26L16 28L15 28L15 29L16 29L16 28L17 28L17 26L18 26L18 27L19 27L19 28L18 28L18 29L19 29L19 28L20 28L20 29L21 29L21 27L22 27L22 25L23 25L23 28L24 28L24 29L25 29L25 28L26 28L26 25L28 25L28 27L27 27L27 29L28 29L28 27L29 27L29 23L28 23L28 22L29 22L29 21L27 21L27 18L28 18L28 15L29 15L29 13L27 13L27 12L26 12L26 11L28 11L28 12L29 12L29 11L28 11L28 10L29 10L29 8L28 8L28 10L26 10L26 11L24 11L24 10L25 10L25 9L27 9L27 8L24 8L24 9L22 9L22 8L21 8L21 6L20 6L20 5L21 5L21 4L20 4L20 3L21 3L21 2L20 2L20 3L19 3L19 2L18 2L18 1L21 1L21 0L18 0L18 1L17 1L17 2L13 2L13 0L12 0L12 1L11 1L11 0L10 0L10 1L9 1L9 0ZM14 0L14 1L15 1L15 0ZM11 2L11 4L12 4L12 3L13 3L13 2ZM17 2L17 3L18 3L18 4L19 4L19 3L18 3L18 2ZM14 3L14 4L13 4L13 5L12 5L12 6L11 6L11 8L12 8L12 6L13 6L13 9L15 9L15 11L14 11L14 10L13 10L13 11L11 11L11 13L9 13L9 14L7 14L7 13L8 13L8 11L5 11L5 10L4 10L4 11L2 11L2 12L1 12L1 13L2 13L2 12L4 12L4 13L3 13L3 14L2 14L2 15L3 15L3 16L4 16L4 18L5 18L5 15L6 15L6 16L8 16L8 15L10 15L10 16L9 16L9 17L8 17L8 18L10 18L10 20L9 20L9 22L10 22L10 25L11 25L11 23L14 23L14 22L15 22L15 24L12 24L12 26L9 26L9 28L12 28L12 26L13 26L13 27L14 27L14 26L15 26L15 24L18 24L18 26L21 26L21 25L20 25L20 24L19 24L19 23L17 23L17 22L18 22L18 21L17 21L17 22L16 22L16 21L13 21L13 18L15 18L15 17L16 17L16 18L17 18L17 19L15 19L15 20L17 20L17 19L18 19L18 18L19 18L19 21L20 21L20 19L21 19L21 16L22 16L22 19L23 19L23 16L24 16L24 15L25 15L25 17L24 17L24 20L26 20L26 19L25 19L25 18L26 18L26 17L27 17L27 15L25 15L25 14L27 14L27 13L25 13L25 12L22 12L22 10L21 10L21 9L20 9L20 10L18 10L18 11L17 11L17 12L18 12L18 11L20 11L20 12L19 12L19 13L17 13L17 14L19 14L19 13L20 13L20 12L21 12L21 14L20 14L20 15L17 15L17 16L16 16L16 14L15 14L15 13L16 13L16 10L17 10L17 9L15 9L15 8L14 8L14 6L15 6L15 7L16 7L16 6L17 6L17 7L18 7L18 8L20 8L20 6L19 6L19 5L17 5L17 4L16 4L16 5L15 5L15 3ZM13 5L13 6L14 6L14 5ZM8 6L8 7L9 7L9 6ZM18 6L18 7L19 7L19 6ZM8 8L8 9L9 9L9 8ZM11 9L11 10L12 10L12 9ZM20 10L20 11L21 11L21 10ZM4 11L4 12L5 12L5 11ZM13 11L13 12L12 12L12 13L11 13L11 16L12 16L12 17L13 17L13 16L12 16L12 14L13 14L13 15L14 15L14 17L15 17L15 15L14 15L14 14L13 14L13 13L14 13L14 11ZM6 12L6 13L7 13L7 12ZM22 13L22 14L21 14L21 15L22 15L22 16L23 16L23 15L24 15L24 14L23 14L23 13ZM6 14L6 15L7 15L7 14ZM22 14L22 15L23 15L23 14ZM18 16L18 17L17 17L17 18L18 18L18 17L19 17L19 16ZM1 17L1 18L0 18L0 19L1 19L1 18L2 18L2 17ZM6 17L6 18L7 18L7 17ZM10 17L10 18L11 18L11 17ZM11 19L11 20L12 20L12 19ZM21 21L21 24L24 24L24 21ZM22 22L22 23L23 23L23 22ZM26 22L26 23L25 23L25 25L26 25L26 24L28 24L28 23L27 23L27 22ZM13 25L13 26L14 26L14 25ZM24 26L24 28L25 28L25 26ZM0 0L0 7L7 7L7 0ZM1 1L1 6L6 6L6 1ZM2 2L2 5L5 5L5 2ZM22 0L22 7L29 7L29 0ZM23 1L23 6L28 6L28 1ZM24 2L24 5L27 5L27 2ZM0 22L0 29L7 29L7 22ZM1 23L1 28L6 28L6 23ZM2 24L2 27L5 27L5 24Z" fill="#000000"/></g></g></svg>
