<?xml version="1.0" encoding="UTF-8"?>
<svg xmlns="http://www.w3.org/2000/svg" version="1.1" width="200" height="200" viewBox="0 0 200 200"><rect x="0" y="0" width="200" height="200" fill="#ffffff"/><g transform="scale(6.897)"><g transform="translate(0,0)"><path fill-rule="evenodd" d="M9 0L9 1L8 1L8 3L9 3L9 4L8 4L8 8L6 8L6 9L8 9L8 10L9 10L9 11L11 11L11 10L12 10L12 9L11 9L11 8L10 8L10 7L11 7L11 6L12 6L12 8L13 8L13 10L15 10L15 9L17 9L17 8L18 8L18 7L19 7L19 6L20 6L20 7L21 7L21 4L20 4L20 5L19 5L19 6L18 6L18 7L17 7L17 5L16 5L16 4L17 4L17 3L18 3L18 4L19 4L19 3L21 3L21 1L20 1L20 0L18 0L18 1L17 1L17 0L15 0L15 1L14 1L14 3L15 3L15 5L14 5L14 4L13 4L13 6L12 6L12 5L11 5L11 6L10 6L10 5L9 5L9 4L12 4L12 3L13 3L13 0L12 0L12 1L11 1L11 2L9 2L9 1L10 1L10 0ZM18 1L18 3L19 3L19 2L20 2L20 1ZM9 6L9 7L10 7L10 6ZM13 6L13 8L14 8L14 9L15 9L15 8L17 8L17 7L16 7L16 6L15 6L15 7L14 7L14 6ZM0 8L0 9L1 9L1 10L0 10L0 12L2 12L2 13L0 13L0 16L2 16L2 18L3 18L3 19L2 19L2 20L3 20L3 21L4 21L4 20L5 20L5 18L6 18L6 19L7 19L7 20L6 20L6 21L7 21L7 20L10 20L10 21L11 21L11 22L9 22L9 21L8 21L8 23L10 23L10 24L9 24L9 25L8 25L8 26L9 26L9 27L8 27L8 29L10 29L10 28L12 28L12 29L14 29L14 28L12 28L12 24L14 24L14 25L13 25L13 27L15 27L15 24L17 24L17 26L16 26L16 28L15 28L15 29L16 29L16 28L17 28L17 29L18 29L18 28L19 28L19 29L21 29L21 27L22 27L22 26L24 26L24 28L23 28L23 29L24 29L24 28L25 28L25 29L26 29L26 28L25 28L25 26L28 26L28 27L27 27L27 29L28 29L28 27L29 27L29 26L28 26L28 25L25 25L25 20L24 20L24 17L22 17L22 16L24 16L24 15L25 15L25 17L26 17L26 15L27 15L27 17L28 17L28 18L27 18L27 20L26 20L26 22L27 22L27 23L26 23L26 24L28 24L28 22L29 22L29 21L27 21L27 20L29 20L29 17L28 17L28 15L29 15L29 14L27 14L27 13L29 13L29 12L28 12L28 10L29 10L29 9L28 9L28 8L26 8L26 9L25 9L25 8L22 8L22 9L21 9L21 8L20 8L20 9L21 9L21 10L18 10L18 12L17 12L17 13L19 13L19 14L20 14L20 13L19 13L19 12L21 12L21 15L22 15L22 16L21 16L21 17L20 17L20 15L17 15L17 14L16 14L16 16L17 16L17 17L16 17L16 18L18 18L18 19L15 19L15 20L14 20L14 18L15 18L15 13L16 13L16 11L17 11L17 10L16 10L16 11L15 11L15 12L14 12L14 11L13 11L13 12L12 12L12 13L9 13L9 12L8 12L8 11L7 11L7 10L6 10L6 11L5 11L5 9L4 9L4 8L3 8L3 9L2 9L2 8ZM8 8L8 9L9 9L9 10L10 10L10 8ZM3 9L3 10L4 10L4 9ZM23 9L23 11L22 11L22 10L21 10L21 11L22 11L22 12L23 12L23 13L22 13L22 15L24 15L24 14L25 14L25 15L26 15L26 13L27 13L27 12L26 12L26 13L25 13L25 12L23 12L23 11L24 11L24 10L25 10L25 9ZM26 9L26 10L28 10L28 9ZM3 11L3 13L6 13L6 14L3 14L3 17L5 17L5 16L4 16L4 15L6 15L6 16L9 16L9 14L8 14L8 15L6 15L6 14L7 14L7 13L6 13L6 12L7 12L7 11L6 11L6 12L4 12L4 11ZM13 13L13 14L14 14L14 13ZM10 14L10 16L12 16L12 17L9 17L9 18L7 18L7 17L6 17L6 18L7 18L7 19L10 19L10 20L11 20L11 19L12 19L12 20L13 20L13 21L14 21L14 22L15 22L15 23L14 23L14 24L15 24L15 23L17 23L17 24L18 24L18 27L19 27L19 28L20 28L20 24L19 24L19 23L20 23L20 21L19 21L19 20L23 20L23 19L22 19L22 17L21 17L21 19L20 19L20 17L19 17L19 16L18 16L18 18L19 18L19 20L17 20L17 21L18 21L18 22L16 22L16 21L14 21L14 20L13 20L13 18L14 18L14 17L13 17L13 16L12 16L12 14ZM0 18L0 19L1 19L1 18ZM10 18L10 19L11 19L11 18ZM25 18L25 19L26 19L26 18ZM3 19L3 20L4 20L4 19ZM0 20L0 21L1 21L1 20ZM21 21L21 24L24 24L24 21ZM22 22L22 23L23 23L23 22ZM9 25L9 26L10 26L10 27L11 27L11 26L10 26L10 25ZM21 25L21 26L22 26L22 25ZM0 0L0 7L7 7L7 0ZM1 1L1 6L6 6L6 1ZM2 2L2 5L5 5L5 2ZM22 0L22 7L29 7L29 0ZM23 1L23 6L28 6L28 1ZM24 2L24 5L27 5L27 2ZM0 22L0 29L7 29L7 22ZM1 23L1 28L6 28L6 23ZM2 24L2 27L5 27L5 24Z" fill="#000000"/></g></g></svg>
