<?xml version="1.0" encoding="UTF-8"?>
<svg xmlns="http://www.w3.org/2000/svg" version="1.1" width="200" height="200" viewBox="0 0 200 200"><rect x="0" y="0" width="200" height="200" fill="#ffffff"/><g transform="scale(6.897)"><g transform="translate(0,0)"><path fill-rule="evenodd" d="M10 0L10 1L8 1L8 3L9 3L9 4L8 4L8 8L6 8L6 9L4 9L4 8L3 8L3 10L1 10L1 9L2 9L2 8L0 8L0 10L1 10L1 11L0 11L0 12L1 12L1 11L2 11L2 13L0 13L0 14L1 14L1 16L0 16L0 17L1 17L1 18L0 18L0 19L1 19L1 18L2 18L2 21L5 21L5 20L6 20L6 21L8 21L8 23L9 23L9 22L10 22L10 23L11 23L11 22L12 22L12 21L11 21L11 22L10 22L10 21L9 21L9 20L11 20L11 19L12 19L12 20L13 20L13 18L14 18L14 20L15 20L15 21L14 21L14 22L15 22L15 21L16 21L16 22L18 22L18 21L17 21L17 20L19 20L19 21L20 21L20 23L19 23L19 24L20 24L20 28L19 28L19 27L18 27L18 24L17 24L17 23L14 23L14 24L17 24L17 26L16 26L16 28L15 28L15 27L13 27L13 24L12 24L12 25L11 25L11 26L10 26L10 24L9 24L9 25L8 25L8 26L10 26L10 27L8 27L8 29L9 29L9 28L10 28L10 29L12 29L12 28L13 28L13 29L16 29L16 28L17 28L17 29L18 29L18 28L19 28L19 29L21 29L21 27L22 27L22 26L24 26L24 28L23 28L23 29L24 29L24 28L25 28L25 29L26 29L26 28L25 28L25 26L28 26L28 27L27 27L27 29L28 29L28 27L29 27L29 26L28 26L28 25L29 25L29 23L28 23L28 22L29 22L29 21L27 21L27 20L29 20L29 17L28 17L28 15L29 15L29 14L27 14L27 13L29 13L29 12L28 12L28 10L29 10L29 9L28 9L28 8L26 8L26 9L25 9L25 8L22 8L22 9L21 9L21 8L20 8L20 9L21 9L21 10L18 10L18 12L17 12L17 13L19 13L19 14L20 14L20 13L19 13L19 12L21 12L21 15L22 15L22 16L21 16L21 17L20 17L20 15L17 15L17 14L16 14L16 16L17 16L17 17L16 17L16 18L18 18L18 19L15 19L15 17L14 17L14 16L12 16L12 12L14 12L14 13L13 13L13 15L15 15L15 14L14 14L14 13L16 13L16 11L17 11L17 10L16 10L16 11L15 11L15 12L14 12L14 11L13 11L13 10L15 10L15 9L17 9L17 8L18 8L18 7L19 7L19 6L20 6L20 7L21 7L21 4L20 4L20 5L19 5L19 6L18 6L18 7L17 7L17 5L16 5L16 4L17 4L17 3L18 3L18 4L19 4L19 3L21 3L21 1L20 1L20 0L18 0L18 1L17 1L17 0L15 0L15 2L16 2L16 3L15 3L15 5L14 5L14 4L13 4L13 3L12 3L12 7L11 7L11 4L10 4L10 3L9 3L9 2L11 2L11 0ZM16 1L16 2L17 2L17 1ZM18 1L18 3L19 3L19 2L20 2L20 1ZM9 5L9 8L8 8L8 9L6 9L6 10L3 10L3 14L2 14L2 15L3 15L3 14L4 14L4 13L6 13L6 14L5 14L5 16L2 16L2 18L5 18L5 17L6 17L6 18L9 18L9 17L10 17L10 19L11 19L11 18L12 18L12 16L11 16L11 13L10 13L10 12L9 12L9 11L11 11L11 8L10 8L10 5ZM13 6L13 7L12 7L12 8L14 8L14 9L15 9L15 8L17 8L17 7L16 7L16 6L15 6L15 8L14 8L14 6ZM8 9L8 10L10 10L10 9ZM23 9L23 11L22 11L22 10L21 10L21 11L22 11L22 12L23 12L23 13L22 13L22 15L24 15L24 16L22 16L22 17L21 17L21 19L20 19L20 17L19 17L19 16L18 16L18 18L19 18L19 20L23 20L23 19L22 19L22 17L24 17L24 20L25 20L25 25L27 25L27 24L28 24L28 23L27 23L27 22L26 22L26 20L27 20L27 18L28 18L28 17L27 17L27 15L26 15L26 13L27 13L27 12L26 12L26 13L25 13L25 12L23 12L23 11L24 11L24 10L25 10L25 9ZM26 9L26 10L28 10L28 9ZM6 10L6 11L7 11L7 12L6 12L6 13L7 13L7 14L6 14L6 15L7 15L7 14L9 14L9 13L8 13L8 11L7 11L7 10ZM4 11L4 12L5 12L5 11ZM24 14L24 15L25 15L25 17L26 17L26 15L25 15L25 14ZM9 15L9 16L6 16L6 17L9 17L9 16L10 16L10 15ZM25 18L25 19L26 19L26 18ZM4 19L4 20L5 20L5 19ZM6 19L6 20L8 20L8 19ZM0 20L0 21L1 21L1 20ZM21 21L21 24L24 24L24 21ZM22 22L22 23L23 23L23 22ZM26 23L26 24L27 24L27 23ZM21 25L21 26L22 26L22 25ZM11 26L11 27L10 27L10 28L12 28L12 26ZM0 0L0 7L7 7L7 0ZM1 1L1 6L6 6L6 1ZM2 2L2 5L5 5L5 2ZM22 0L22 7L29 7L29 0ZM23 1L23 6L28 6L28 1ZM24 2L24 5L27 5L27 2ZM0 22L0 29L7 29L7 22ZM1 23L1 28L6 28L6 23ZM2 24L2 27L5 27L5 24Z" fill="#000000"/></g></g></svg>
