<?xml version="1.0" standalone="no"?>
<!DOCTYPE svg PUBLIC "-//W3C//DTD SVG 20010904//EN"
 "http://www.w3.org/TR/2001/REC-SVG-20010904/DTD/svg10.dtd">
<svg version="1.0" xmlns="http://www.w3.org/2000/svg"
 width="80.000000pt" height="80.000000pt" viewBox="0 0 80.000000 80.000000"
 preserveAspectRatio="xMidYMid meet">
<metadata>
Created by potrace 1.16, written by Peter Selinger 2001-2019
</metadata>
<g transform="translate(0.000000,80.000000) scale(0.100000,-0.100000)"
fill="#000000" stroke="none">
<path d="M315 560 c-49 -33 -94 -62 -100 -65 -6 -3 -5 -7 3 -11 15 -7 17 -125
2 -140 -8 -8 -7 -19 1 -38 l13 -27 14 26 c10 20 11 30 3 38 -12 12 -15 117 -3
117 12 0 52 -30 52 -40 0 -5 14 -32 30 -60 17 -28 30 -53 30 -56 0 -3 -17 -12
-37 -21 -70 -28 -93 -51 -93 -89 l0 -34 128 0 c124 0 129 -1 152 -25 69 -73
190 -20 190 82 0 38 -5 50 -34 79 -41 41 -92 46 -145 13 -39 -24 -65 -12 -40
18 8 10 25 39 37 65 16 33 35 54 63 70 21 12 39 24 39 27 0 8 -197 131 -207
130 -5 0 -48 -27 -98 -59z m191 -12 c46 -29 84 -55 84 -58 0 -8 -56 -40 -69
-40 -7 0 -10 12 -9 27 4 34 -29 53 -95 53 -67 0 -106 -21 -100 -55 3 -14 1
-25 -5 -25 -13 0 -72 33 -72 40 1 6 162 108 174 109 4 1 46 -23 92 -51z m-12
-111 c17 -17 21 -37 7 -37 -5 0 -11 -13 -14 -30 -4 -19 -17 -35 -37 -45 -26
-14 -34 -14 -65 -1 -26 11 -37 23 -41 46 -4 16 -10 30 -15 30 -24 0 0 40 31
53 27 12 117 1 134 -16z m152 -142 c11 -8 27 -27 34 -44 40 -98 -85 -177 -161
-102 -38 38 -39 87 -4 130 36 42 81 47 131 16z m-276 -45 c25 -25 64 -26 88
-2 18 18 18 17 18 -30 l-1 -48 -113 0 c-91 0 -114 3 -118 15 -7 18 11 42 51
67 38 23 50 23 75 -2z"/>
</g>
</svg>
