<?xml version="1.0" standalone="no"?>
<!DOCTYPE svg PUBLIC "-//W3C//DTD SVG 20010904//EN"
 "http://www.w3.org/TR/2001/REC-SVG-20010904/DTD/svg10.dtd">
<svg version="1.0" xmlns="http://www.w3.org/2000/svg"
 width="80.000000pt" height="80.000000pt" viewBox="0 0 80.000000 80.000000"
 preserveAspectRatio="xMidYMid meet">
<metadata>
Created by potrace 1.16, written by Peter Selinger 2001-2019
</metadata>
<g transform="translate(0.000000,80.000000) scale(0.100000,-0.100000)"
fill="#000000" stroke="none">
<path d="M120 405 l0 -205 59 0 c73 0 237 -31 346 -65 44 -13 83 -25 88 -25 4
0 7 16 7 36 0 31 3 35 20 29 18 -6 20 -2 20 44 0 28 5 51 10 51 6 0 10 63 10
170 l0 170 -280 0 -280 0 0 -205z m550 35 l0 -150 -270 0 -270 0 0 150 0 150
270 0 270 0 0 -150z m-79 -182 c0 -10 2 -10 6 0 2 6 13 12 24 12 15 0 19 -7
19 -35 0 -19 -3 -35 -7 -35 -5 0 -57 9 -118 21 -60 11 -166 23 -235 26 -212
10 -169 22 78 23 179 0 232 -3 233 -12z"/>
<path d="M339 501 c-20 -20 -29 -39 -29 -61 0 -43 47 -90 90 -90 43 0 90 47
90 90 0 43 -47 90 -90 90 -22 0 -41 -9 -61 -29z m111 -11 c11 -11 20 -33 20
-50 0 -17 -9 -39 -20 -50 -43 -43 -120 -11 -120 50 0 17 9 39 20 50 11 11 33
20 50 20 17 0 39 -9 50 -20z"/>
</g>
</svg>
